<svg width="23" height="32" viewBox="0 0 23 32" fill="none" xmlns="http://www.w3.org/2000/svg">
<path d="M11.4913 23.3037C10.6187 24.0009 9.75308 24.6929 8.88745 25.3849C6.5672 27.2418 4.24783 29.1004 1.92845 30.9573C1.82636 31.0385 1.72601 31.1231 1.61606 31.1929C0.932812 31.6292 0.059337 31.1868 0.00436301 30.3779C-0.00261781 30.2697 0.000872602 30.1606 0.000872602 30.0516C0.000872602 20.4686 0.000872602 10.8857 0.000872602 1.3028C0.000872602 0.363875 0.363875 0 1.30192 0C8.11782 0 14.9337 0 21.7487 0C22.61 0 22.9974 0.390053 22.9974 1.26004C22.9974 10.8648 22.9974 20.4695 22.9974 30.0742C22.9974 30.0961 22.9966 30.1179 22.9974 30.1397C23.0236 30.6414 22.8517 31.0411 22.3814 31.2653C21.9145 31.4879 21.5236 31.3177 21.151 31.0167C20.1187 30.1816 19.0786 29.3552 18.0419 28.5262C15.9424 26.8465 13.843 25.1676 11.7426 23.4887C11.6676 23.4285 11.5873 23.3753 11.4913 23.3055V23.3037ZM20.884 28.1222V2.11781H2.1213V28.1152C2.23386 28.0271 2.31152 27.9678 2.38744 27.9067C5.15097 25.6981 7.91363 23.4887 10.678 21.281C11.3072 20.7784 11.7086 20.7784 12.3369 21.281C14.343 22.8857 16.3473 24.4922 18.3526 26.0978C19.1833 26.7627 20.0149 27.4268 20.884 28.1222Z" fill="#999999"/>
</svg>
