<svg width="23" height="32" viewBox="0 0 23 32" fill="none" xmlns="http://www.w3.org/2000/svg">
<g clip-path="url(#clip0_433_77)">
<path d="M11.4913 23.7743C10.6187 24.4856 9.75306 25.1916 8.88744 25.8975C6.56719 27.7919 4.24782 29.6881 1.92845 31.5825C1.82635 31.6653 1.726 31.7516 1.61606 31.8228C0.93281 32.268 0.0593368 31.8166 0.004363 30.9914C-0.0026178 30.881 0.0008726 30.7697 0.0008726 30.6584C0.0008726 20.882 0.0008726 11.1055 0.0008726 1.3291C0.0008726 0.371224 0.363874 0 1.30192 0C8.1178 0 14.9337 0 21.7487 0C22.61 0 22.9974 0.39793 22.9974 1.28548C22.9974 11.0842 22.9974 20.8829 22.9974 30.6816C22.9974 30.7038 22.9965 30.7261 22.9974 30.7483C23.0236 31.2602 22.8517 31.6679 22.3813 31.8967C21.9145 32.1237 21.5236 31.9501 21.151 31.643C20.1187 30.7911 19.0785 29.948 18.0419 29.1023C15.9424 27.3886 13.8429 25.6758 11.7426 23.9631C11.6675 23.9016 11.5873 23.8473 11.4913 23.7761V23.7743ZM20.8839 28.6901V2.16057H2.12129V28.683C2.23386 28.5931 2.31152 28.5326 2.38743 28.4703C5.15096 26.2171 7.91361 23.9631 10.678 21.7108C11.3072 21.198 11.7086 21.198 12.3368 21.7108C14.3429 23.3479 16.3473 24.9868 18.3525 26.6248C19.1832 27.3032 20.0148 27.9806 20.8839 28.6901Z" fill="white"/>
</g>
<defs>
<clipPath id="clip0_433_77">
<rect width="23" height="32" fill="white"/>
</clipPath>
</defs>
</svg>
